<mxfile host="app.diagrams.net" modified="2024-01-31T13:58:55.111Z" agent="Mozilla/5.0 (Windows NT 10.0; Win64; x64) AppleWebKit/537.36 (KHTML, like Gecko) Chrome/121.0.0.0 Safari/537.36" etag="OuNJ2O4QqmW7o9xGnrcE" version="23.0.2" type="device">
  <diagram name="Page-1" id="4uxuASa5PPn6ZYXcNgnF">
    <mxGraphModel dx="2284" dy="818" grid="1" gridSize="10" guides="1" tooltips="1" connect="1" arrows="1" fold="1" page="1" pageScale="1" pageWidth="850" pageHeight="1100" math="0" shadow="0">
      <root>
        <mxCell id="0" />
        <mxCell id="1" parent="0" />
        <mxCell id="_PAhqpTUkESRIHdaC6WQ-7" value="" style="rounded=0;whiteSpace=wrap;html=1;strokeColor=none;movable=0;resizable=0;rotatable=0;deletable=0;editable=0;locked=1;connectable=0;" vertex="1" parent="1">
          <mxGeometry x="-120" y="170" width="960" height="1710" as="geometry" />
        </mxCell>
        <mxCell id="OaPPS3GEKDDDaWRnFWm--27" value="" style="rounded=0;whiteSpace=wrap;html=1;fillColor=#f8cecc;strokeColor=#b85450;" parent="1" vertex="1">
          <mxGeometry x="510" y="501" width="150" height="100" as="geometry" />
        </mxCell>
        <mxCell id="OaPPS3GEKDDDaWRnFWm--15" value="" style="rounded=0;whiteSpace=wrap;html=1;fillColor=#f8cecc;strokeColor=#b85450;" parent="1" vertex="1">
          <mxGeometry x="310" y="310" width="345" height="100" as="geometry" />
        </mxCell>
        <mxCell id="OaPPS3GEKDDDaWRnFWm--11" style="edgeStyle=orthogonalEdgeStyle;rounded=0;orthogonalLoop=1;jettySize=auto;html=1;entryX=0;entryY=0.5;entryDx=0;entryDy=0;" parent="1" source="OaPPS3GEKDDDaWRnFWm--1" target="OaPPS3GEKDDDaWRnFWm--2" edge="1">
          <mxGeometry relative="1" as="geometry" />
        </mxCell>
        <mxCell id="OaPPS3GEKDDDaWRnFWm--1" value="Order System" style="rounded=0;whiteSpace=wrap;html=1;" parent="1" vertex="1">
          <mxGeometry x="120" y="320" width="120" height="60" as="geometry" />
        </mxCell>
        <mxCell id="OaPPS3GEKDDDaWRnFWm--2" value="Storage management system" style="rounded=0;whiteSpace=wrap;html=1;" parent="1" vertex="1">
          <mxGeometry x="320" y="320" width="120" height="60" as="geometry" />
        </mxCell>
        <mxCell id="OaPPS3GEKDDDaWRnFWm--13" style="edgeStyle=orthogonalEdgeStyle;rounded=0;orthogonalLoop=1;jettySize=auto;html=1;" parent="1" source="OaPPS3GEKDDDaWRnFWm--3" target="OaPPS3GEKDDDaWRnFWm--4" edge="1">
          <mxGeometry relative="1" as="geometry" />
        </mxCell>
        <mxCell id="OaPPS3GEKDDDaWRnFWm--3" value="Postage&amp;nbsp; management &lt;br&gt;system" style="rounded=0;whiteSpace=wrap;html=1;" parent="1" vertex="1">
          <mxGeometry x="520" y="320" width="120" height="60" as="geometry" />
        </mxCell>
        <mxCell id="OaPPS3GEKDDDaWRnFWm--4" value="User Feedback" style="rounded=0;whiteSpace=wrap;html=1;fillColor=#dae8fc;strokeColor=#6c8ebf;" parent="1" vertex="1">
          <mxGeometry x="520" y="210" width="120" height="60" as="geometry" />
        </mxCell>
        <mxCell id="OaPPS3GEKDDDaWRnFWm--10" style="edgeStyle=orthogonalEdgeStyle;rounded=0;orthogonalLoop=1;jettySize=auto;html=1;exitX=1;exitY=0.5;exitDx=0;exitDy=0;entryX=0;entryY=0.5;entryDx=0;entryDy=0;" parent="1" source="OaPPS3GEKDDDaWRnFWm--5" target="OaPPS3GEKDDDaWRnFWm--1" edge="1">
          <mxGeometry relative="1" as="geometry" />
        </mxCell>
        <mxCell id="OaPPS3GEKDDDaWRnFWm--5" value="order 1" style="rounded=1;whiteSpace=wrap;html=1;fillColor=#dae8fc;strokeColor=#6c8ebf;" parent="1" vertex="1">
          <mxGeometry x="10" y="340" width="70" height="20" as="geometry" />
        </mxCell>
        <mxCell id="OaPPS3GEKDDDaWRnFWm--20" style="edgeStyle=orthogonalEdgeStyle;rounded=0;orthogonalLoop=1;jettySize=auto;html=1;entryX=0;entryY=0.5;entryDx=0;entryDy=0;" parent="1" source="OaPPS3GEKDDDaWRnFWm--17" target="OaPPS3GEKDDDaWRnFWm--19" edge="1">
          <mxGeometry relative="1" as="geometry" />
        </mxCell>
        <mxCell id="OaPPS3GEKDDDaWRnFWm--17" value="Order System" style="rounded=0;whiteSpace=wrap;html=1;" parent="1" vertex="1">
          <mxGeometry x="120" y="590" width="120" height="60" as="geometry" />
        </mxCell>
        <mxCell id="OaPPS3GEKDDDaWRnFWm--24" style="rounded=0;orthogonalLoop=1;jettySize=auto;html=1;exitX=0;exitY=0.5;exitDx=0;exitDy=0;entryX=1;entryY=0.25;entryDx=0;entryDy=0;" parent="1" source="OaPPS3GEKDDDaWRnFWm--18" target="OaPPS3GEKDDDaWRnFWm--19" edge="1">
          <mxGeometry relative="1" as="geometry" />
        </mxCell>
        <mxCell id="OaPPS3GEKDDDaWRnFWm--18" value="Storage management system" style="rounded=0;whiteSpace=wrap;html=1;" parent="1" vertex="1">
          <mxGeometry x="520" y="521" width="120" height="60" as="geometry" />
        </mxCell>
        <mxCell id="OaPPS3GEKDDDaWRnFWm--28" style="edgeStyle=orthogonalEdgeStyle;rounded=0;orthogonalLoop=1;jettySize=auto;html=1;" parent="1" source="OaPPS3GEKDDDaWRnFWm--19" target="OaPPS3GEKDDDaWRnFWm--21" edge="1">
          <mxGeometry relative="1" as="geometry" />
        </mxCell>
        <mxCell id="OaPPS3GEKDDDaWRnFWm--19" value="&lt;b style=&quot;border-color: var(--border-color);&quot;&gt;Message&lt;br style=&quot;border-color: var(--border-color);&quot;&gt;Queue&lt;/b&gt;" style="shape=process;whiteSpace=wrap;html=1;backgroundOutline=1;" parent="1" vertex="1">
          <mxGeometry x="320" y="590" width="120" height="60" as="geometry" />
        </mxCell>
        <mxCell id="OaPPS3GEKDDDaWRnFWm--21" value="User Feedback" style="rounded=0;whiteSpace=wrap;html=1;fillColor=#dae8fc;strokeColor=#6c8ebf;" parent="1" vertex="1">
          <mxGeometry x="320" y="480" width="120" height="60" as="geometry" />
        </mxCell>
        <mxCell id="OaPPS3GEKDDDaWRnFWm--25" style="rounded=0;orthogonalLoop=1;jettySize=auto;html=1;exitX=0;exitY=0.5;exitDx=0;exitDy=0;" parent="1" source="OaPPS3GEKDDDaWRnFWm--23" target="OaPPS3GEKDDDaWRnFWm--19" edge="1">
          <mxGeometry relative="1" as="geometry" />
        </mxCell>
        <mxCell id="OaPPS3GEKDDDaWRnFWm--23" value="Postage&amp;nbsp; management&lt;br style=&quot;border-color: var(--border-color);&quot;&gt;system" style="rounded=0;whiteSpace=wrap;html=1;" parent="1" vertex="1">
          <mxGeometry x="520" y="636" width="120" height="60" as="geometry" />
        </mxCell>
        <mxCell id="OaPPS3GEKDDDaWRnFWm--29" value="&lt;b&gt;Order comfirmed&lt;/b&gt;" style="text;html=1;strokeColor=none;fillColor=none;align=center;verticalAlign=middle;whiteSpace=wrap;rounded=0;" parent="1" vertex="1">
          <mxGeometry x="310" y="555" width="60" height="30" as="geometry" />
        </mxCell>
        <mxCell id="OaPPS3GEKDDDaWRnFWm--30" value="&lt;b&gt;Order failed&lt;/b&gt;" style="text;html=1;strokeColor=none;fillColor=none;align=center;verticalAlign=middle;whiteSpace=wrap;rounded=0;" parent="1" vertex="1">
          <mxGeometry x="520" y="280" width="60" height="30" as="geometry" />
        </mxCell>
        <mxCell id="OaPPS3GEKDDDaWRnFWm--31" value="" style="shadow=0;dashed=0;html=1;strokeColor=none;fillColor=#EF8F21;labelPosition=center;verticalLabelPosition=bottom;verticalAlign=top;align=center;outlineConnect=0;shape=mxgraph.veeam.failed;" parent="1" vertex="1">
          <mxGeometry x="590" y="280" width="30" height="30" as="geometry" />
        </mxCell>
        <mxCell id="OaPPS3GEKDDDaWRnFWm--33" style="edgeStyle=orthogonalEdgeStyle;rounded=0;orthogonalLoop=1;jettySize=auto;html=1;" parent="1" source="OaPPS3GEKDDDaWRnFWm--32" target="OaPPS3GEKDDDaWRnFWm--17" edge="1">
          <mxGeometry relative="1" as="geometry" />
        </mxCell>
        <mxCell id="OaPPS3GEKDDDaWRnFWm--32" value="order 1" style="rounded=1;whiteSpace=wrap;html=1;fillColor=#dae8fc;strokeColor=#6c8ebf;" parent="1" vertex="1">
          <mxGeometry x="10" y="610" width="70" height="20" as="geometry" />
        </mxCell>
        <mxCell id="OaPPS3GEKDDDaWRnFWm--34" value="" style="shape=image;html=1;verticalAlign=top;verticalLabelPosition=bottom;labelBackgroundColor=#ffffff;imageAspect=0;aspect=fixed;image=https://cdn3.iconfinder.com/data/icons/miscellaneous-80/60/check-128.png" parent="1" vertex="1">
          <mxGeometry x="390" y="552" width="33" height="33" as="geometry" />
        </mxCell>
        <mxCell id="OaPPS3GEKDDDaWRnFWm--36" style="edgeStyle=orthogonalEdgeStyle;rounded=0;orthogonalLoop=1;jettySize=auto;html=1;entryX=0;entryY=0.5;entryDx=0;entryDy=0;strokeWidth=2;fillColor=#1ba1e2;strokeColor=#006EAF;" parent="1" source="OaPPS3GEKDDDaWRnFWm--37" target="OaPPS3GEKDDDaWRnFWm--39" edge="1">
          <mxGeometry relative="1" as="geometry" />
        </mxCell>
        <mxCell id="OaPPS3GEKDDDaWRnFWm--37" value="Order System" style="rounded=0;whiteSpace=wrap;html=1;" parent="1" vertex="1">
          <mxGeometry x="120" y="920" width="120" height="60" as="geometry" />
        </mxCell>
        <mxCell id="OaPPS3GEKDDDaWRnFWm--38" style="edgeStyle=orthogonalEdgeStyle;rounded=0;orthogonalLoop=1;jettySize=auto;html=1;fillColor=#1ba1e2;strokeColor=#006EAF;strokeWidth=2;" parent="1" source="OaPPS3GEKDDDaWRnFWm--39" target="OaPPS3GEKDDDaWRnFWm--41" edge="1">
          <mxGeometry relative="1" as="geometry" />
        </mxCell>
        <mxCell id="OaPPS3GEKDDDaWRnFWm--39" value="Storage management system" style="rounded=0;whiteSpace=wrap;html=1;" parent="1" vertex="1">
          <mxGeometry x="320" y="920" width="120" height="60" as="geometry" />
        </mxCell>
        <mxCell id="OaPPS3GEKDDDaWRnFWm--40" style="edgeStyle=orthogonalEdgeStyle;rounded=0;orthogonalLoop=1;jettySize=auto;html=1;fillColor=#1ba1e2;strokeColor=#006EAF;strokeWidth=2;" parent="1" source="OaPPS3GEKDDDaWRnFWm--41" target="OaPPS3GEKDDDaWRnFWm--42" edge="1">
          <mxGeometry relative="1" as="geometry" />
        </mxCell>
        <mxCell id="OaPPS3GEKDDDaWRnFWm--41" value="Postage&amp;nbsp; management&lt;br style=&quot;border-color: var(--border-color);&quot;&gt;system" style="rounded=0;whiteSpace=wrap;html=1;" parent="1" vertex="1">
          <mxGeometry x="520" y="920" width="120" height="60" as="geometry" />
        </mxCell>
        <mxCell id="OaPPS3GEKDDDaWRnFWm--42" value="User Feedback" style="rounded=0;whiteSpace=wrap;html=1;fillColor=#dae8fc;strokeColor=#6c8ebf;" parent="1" vertex="1">
          <mxGeometry x="520" y="810" width="120" height="60" as="geometry" />
        </mxCell>
        <mxCell id="OaPPS3GEKDDDaWRnFWm--43" style="edgeStyle=orthogonalEdgeStyle;rounded=0;orthogonalLoop=1;jettySize=auto;html=1;exitX=1;exitY=0.5;exitDx=0;exitDy=0;entryX=0;entryY=0.5;entryDx=0;entryDy=0;strokeWidth=2;fillColor=#1ba1e2;strokeColor=#006EAF;" parent="1" source="OaPPS3GEKDDDaWRnFWm--44" target="OaPPS3GEKDDDaWRnFWm--37" edge="1">
          <mxGeometry relative="1" as="geometry" />
        </mxCell>
        <mxCell id="OaPPS3GEKDDDaWRnFWm--44" value="order 1" style="rounded=1;whiteSpace=wrap;html=1;fillColor=#dae8fc;strokeColor=#6c8ebf;" parent="1" vertex="1">
          <mxGeometry x="10" y="940" width="70" height="20" as="geometry" />
        </mxCell>
        <mxCell id="OaPPS3GEKDDDaWRnFWm--48" value="0.002 s" style="text;html=1;strokeColor=none;fillColor=none;align=center;verticalAlign=middle;whiteSpace=wrap;rounded=0;" parent="1" vertex="1">
          <mxGeometry x="250" y="920" width="60" height="30" as="geometry" />
        </mxCell>
        <mxCell id="OaPPS3GEKDDDaWRnFWm--49" value="0.5 s" style="text;html=1;strokeColor=none;fillColor=none;align=center;verticalAlign=middle;whiteSpace=wrap;rounded=0;" parent="1" vertex="1">
          <mxGeometry x="450" y="920" width="60" height="30" as="geometry" />
        </mxCell>
        <mxCell id="OaPPS3GEKDDDaWRnFWm--50" value="order 2" style="rounded=1;whiteSpace=wrap;html=1;fillColor=#dae8fc;strokeColor=#6c8ebf;" parent="1" vertex="1">
          <mxGeometry x="10" y="910" width="70" height="20" as="geometry" />
        </mxCell>
        <mxCell id="OaPPS3GEKDDDaWRnFWm--52" value="order n" style="rounded=1;whiteSpace=wrap;html=1;fillColor=#dae8fc;strokeColor=#6c8ebf;" parent="1" vertex="1">
          <mxGeometry x="10" y="870" width="70" height="20" as="geometry" />
        </mxCell>
        <mxCell id="OaPPS3GEKDDDaWRnFWm--54" value="order 1" style="rounded=1;whiteSpace=wrap;html=1;fillColor=#dae8fc;strokeColor=#6c8ebf;" parent="1" vertex="1">
          <mxGeometry x="380" y="870" width="70" height="20" as="geometry" />
        </mxCell>
        <mxCell id="OaPPS3GEKDDDaWRnFWm--55" value="order 2" style="rounded=1;whiteSpace=wrap;html=1;fillColor=#dae8fc;strokeColor=#6c8ebf;" parent="1" vertex="1">
          <mxGeometry x="380" y="840" width="70" height="20" as="geometry" />
        </mxCell>
        <mxCell id="OaPPS3GEKDDDaWRnFWm--56" value="order n" style="rounded=1;whiteSpace=wrap;html=1;fillColor=#dae8fc;strokeColor=#6c8ebf;" parent="1" vertex="1">
          <mxGeometry x="380" y="800" width="70" height="20" as="geometry" />
        </mxCell>
        <mxCell id="OaPPS3GEKDDDaWRnFWm--57" value="1 s" style="text;html=1;strokeColor=none;fillColor=none;align=center;verticalAlign=middle;whiteSpace=wrap;rounded=0;" parent="1" vertex="1">
          <mxGeometry x="450" y="870" width="40" height="20" as="geometry" />
        </mxCell>
        <mxCell id="OaPPS3GEKDDDaWRnFWm--58" value="1 + 1 s" style="text;html=1;strokeColor=none;fillColor=none;align=center;verticalAlign=middle;whiteSpace=wrap;rounded=0;" parent="1" vertex="1">
          <mxGeometry x="457.5" y="840" width="40" height="20" as="geometry" />
        </mxCell>
        <mxCell id="OaPPS3GEKDDDaWRnFWm--59" value="n + 1 s" style="text;html=1;strokeColor=none;fillColor=none;align=center;verticalAlign=middle;whiteSpace=wrap;rounded=0;" parent="1" vertex="1">
          <mxGeometry x="457.5" y="800" width="40" height="20" as="geometry" />
        </mxCell>
        <mxCell id="OaPPS3GEKDDDaWRnFWm--62" style="edgeStyle=orthogonalEdgeStyle;rounded=0;orthogonalLoop=1;jettySize=auto;html=1;entryX=0;entryY=0.5;entryDx=0;entryDy=0;fillColor=#1ba1e2;strokeColor=#006EAF;strokeWidth=2;" parent="1" source="OaPPS3GEKDDDaWRnFWm--63" target="OaPPS3GEKDDDaWRnFWm--67" edge="1">
          <mxGeometry relative="1" as="geometry" />
        </mxCell>
        <mxCell id="OaPPS3GEKDDDaWRnFWm--63" value="Order System" style="rounded=0;whiteSpace=wrap;html=1;" parent="1" vertex="1">
          <mxGeometry x="120" y="1230" width="120" height="60" as="geometry" />
        </mxCell>
        <mxCell id="OaPPS3GEKDDDaWRnFWm--64" style="rounded=0;orthogonalLoop=1;jettySize=auto;html=1;exitX=0;exitY=0.5;exitDx=0;exitDy=0;entryX=1;entryY=0.25;entryDx=0;entryDy=0;fillColor=#60a917;strokeColor=#2D7600;strokeWidth=2;" parent="1" source="OaPPS3GEKDDDaWRnFWm--65" target="OaPPS3GEKDDDaWRnFWm--67" edge="1">
          <mxGeometry relative="1" as="geometry" />
        </mxCell>
        <mxCell id="OaPPS3GEKDDDaWRnFWm--65" value="Storage management system" style="rounded=0;whiteSpace=wrap;html=1;" parent="1" vertex="1">
          <mxGeometry x="520" y="1180" width="120" height="60" as="geometry" />
        </mxCell>
        <mxCell id="OaPPS3GEKDDDaWRnFWm--66" style="edgeStyle=orthogonalEdgeStyle;rounded=0;orthogonalLoop=1;jettySize=auto;html=1;strokeWidth=2;fillColor=#1ba1e2;strokeColor=#006EAF;" parent="1" source="OaPPS3GEKDDDaWRnFWm--67" target="OaPPS3GEKDDDaWRnFWm--68" edge="1">
          <mxGeometry relative="1" as="geometry" />
        </mxCell>
        <mxCell id="OaPPS3GEKDDDaWRnFWm--67" value="&lt;b style=&quot;border-color: var(--border-color);&quot;&gt;Message&lt;br style=&quot;border-color: var(--border-color);&quot;&gt;Queue&lt;/b&gt;" style="shape=process;whiteSpace=wrap;html=1;backgroundOutline=1;" parent="1" vertex="1">
          <mxGeometry x="320" y="1230" width="120" height="60" as="geometry" />
        </mxCell>
        <mxCell id="OaPPS3GEKDDDaWRnFWm--68" value="User Feedback" style="rounded=0;whiteSpace=wrap;html=1;fillColor=#dae8fc;strokeColor=#6c8ebf;" parent="1" vertex="1">
          <mxGeometry x="320" y="1120" width="120" height="60" as="geometry" />
        </mxCell>
        <mxCell id="OaPPS3GEKDDDaWRnFWm--69" style="rounded=0;orthogonalLoop=1;jettySize=auto;html=1;exitX=0;exitY=0.5;exitDx=0;exitDy=0;fillColor=#60a917;strokeColor=#2D7600;strokeWidth=2;" parent="1" source="OaPPS3GEKDDDaWRnFWm--70" target="OaPPS3GEKDDDaWRnFWm--67" edge="1">
          <mxGeometry relative="1" as="geometry" />
        </mxCell>
        <mxCell id="OaPPS3GEKDDDaWRnFWm--70" value="Postage&amp;nbsp; management&lt;br style=&quot;border-color: var(--border-color);&quot;&gt;system" style="rounded=0;whiteSpace=wrap;html=1;" parent="1" vertex="1">
          <mxGeometry x="520" y="1270" width="120" height="60" as="geometry" />
        </mxCell>
        <mxCell id="OaPPS3GEKDDDaWRnFWm--73" style="edgeStyle=orthogonalEdgeStyle;rounded=0;orthogonalLoop=1;jettySize=auto;html=1;strokeWidth=2;fillColor=#1ba1e2;strokeColor=#006EAF;" parent="1" source="OaPPS3GEKDDDaWRnFWm--74" target="OaPPS3GEKDDDaWRnFWm--63" edge="1">
          <mxGeometry relative="1" as="geometry" />
        </mxCell>
        <mxCell id="OaPPS3GEKDDDaWRnFWm--74" value="order 1" style="rounded=1;whiteSpace=wrap;html=1;fillColor=#dae8fc;strokeColor=#6c8ebf;" parent="1" vertex="1">
          <mxGeometry x="10" y="1250" width="70" height="20" as="geometry" />
        </mxCell>
        <mxCell id="OaPPS3GEKDDDaWRnFWm--76" value="order 2" style="rounded=1;whiteSpace=wrap;html=1;fillColor=#dae8fc;strokeColor=#6c8ebf;" parent="1" vertex="1">
          <mxGeometry x="10" y="1220" width="70" height="20" as="geometry" />
        </mxCell>
        <mxCell id="OaPPS3GEKDDDaWRnFWm--77" value="order n" style="rounded=1;whiteSpace=wrap;html=1;fillColor=#dae8fc;strokeColor=#6c8ebf;" parent="1" vertex="1">
          <mxGeometry x="10" y="1180" width="70" height="20" as="geometry" />
        </mxCell>
        <mxCell id="OaPPS3GEKDDDaWRnFWm--78" value="0.002 s" style="text;html=1;strokeColor=none;fillColor=none;align=center;verticalAlign=middle;whiteSpace=wrap;rounded=0;" parent="1" vertex="1">
          <mxGeometry x="250" y="1230" width="60" height="30" as="geometry" />
        </mxCell>
        <mxCell id="OaPPS3GEKDDDaWRnFWm--79" value="0.5 s" style="text;html=1;strokeColor=none;fillColor=none;align=center;verticalAlign=middle;whiteSpace=wrap;rounded=0;" parent="1" vertex="1">
          <mxGeometry x="447.5" y="1195" width="60" height="30" as="geometry" />
        </mxCell>
        <mxCell id="OaPPS3GEKDDDaWRnFWm--80" value="0.5 s" style="text;html=1;strokeColor=none;fillColor=none;align=center;verticalAlign=middle;whiteSpace=wrap;rounded=0;" parent="1" vertex="1">
          <mxGeometry x="447.5" y="1285" width="60" height="30" as="geometry" />
        </mxCell>
        <mxCell id="OaPPS3GEKDDDaWRnFWm--81" value="order 1" style="rounded=1;whiteSpace=wrap;html=1;fillColor=#dae8fc;strokeColor=#6c8ebf;" parent="1" vertex="1">
          <mxGeometry x="185" y="1175" width="70" height="20" as="geometry" />
        </mxCell>
        <mxCell id="OaPPS3GEKDDDaWRnFWm--82" value="order 2" style="rounded=1;whiteSpace=wrap;html=1;fillColor=#dae8fc;strokeColor=#6c8ebf;" parent="1" vertex="1">
          <mxGeometry x="185" y="1145" width="70" height="20" as="geometry" />
        </mxCell>
        <mxCell id="OaPPS3GEKDDDaWRnFWm--83" value="order n" style="rounded=1;whiteSpace=wrap;html=1;fillColor=#dae8fc;strokeColor=#6c8ebf;" parent="1" vertex="1">
          <mxGeometry x="185" y="1105" width="70" height="20" as="geometry" />
        </mxCell>
        <mxCell id="OaPPS3GEKDDDaWRnFWm--84" value="&amp;lt; 0.01 s" style="text;html=1;strokeColor=none;fillColor=none;align=center;verticalAlign=middle;whiteSpace=wrap;rounded=0;" parent="1" vertex="1">
          <mxGeometry x="255" y="1175" width="50" height="20" as="geometry" />
        </mxCell>
        <mxCell id="OaPPS3GEKDDDaWRnFWm--85" value="&amp;lt; 0.01 s" style="text;html=1;strokeColor=none;fillColor=none;align=center;verticalAlign=middle;whiteSpace=wrap;rounded=0;" parent="1" vertex="1">
          <mxGeometry x="255" y="1145" width="50" height="20" as="geometry" />
        </mxCell>
        <mxCell id="OaPPS3GEKDDDaWRnFWm--86" value="&amp;lt; 0.5 s" style="text;html=1;strokeColor=none;fillColor=none;align=center;verticalAlign=middle;whiteSpace=wrap;rounded=0;" parent="1" vertex="1">
          <mxGeometry x="260" y="1105" width="40" height="20" as="geometry" />
        </mxCell>
        <mxCell id="OaPPS3GEKDDDaWRnFWm--88" value="&lt;b&gt;* * *&lt;/b&gt;" style="text;html=1;strokeColor=none;fillColor=none;align=center;verticalAlign=middle;whiteSpace=wrap;rounded=0;" parent="1" vertex="1">
          <mxGeometry x="15" y="890" width="60" height="30" as="geometry" />
        </mxCell>
        <mxCell id="OaPPS3GEKDDDaWRnFWm--89" value="&lt;b&gt;* * *&lt;/b&gt;" style="text;html=1;strokeColor=none;fillColor=none;align=center;verticalAlign=middle;whiteSpace=wrap;rounded=0;" parent="1" vertex="1">
          <mxGeometry x="15" y="1200" width="60" height="30" as="geometry" />
        </mxCell>
        <mxCell id="OaPPS3GEKDDDaWRnFWm--90" value="&lt;b&gt;* * *&lt;/b&gt;" style="text;html=1;strokeColor=none;fillColor=none;align=center;verticalAlign=middle;whiteSpace=wrap;rounded=0;" parent="1" vertex="1">
          <mxGeometry x="190" y="1125" width="60" height="30" as="geometry" />
        </mxCell>
        <mxCell id="OaPPS3GEKDDDaWRnFWm--91" value="&lt;b&gt;* * *&lt;/b&gt;" style="text;html=1;strokeColor=none;fillColor=none;align=center;verticalAlign=middle;whiteSpace=wrap;rounded=0;" parent="1" vertex="1">
          <mxGeometry x="380" y="820" width="60" height="30" as="geometry" />
        </mxCell>
        <mxCell id="OaPPS3GEKDDDaWRnFWm--92" value="" style="labelPosition=right;align=left;strokeWidth=2;shape=mxgraph.mockup.markup.curlyBrace;html=1;shadow=0;dashed=0;strokeColor=#006EAF;direction=north;fillColor=#1ba1e2;fontColor=#ffffff;rotation=-180;" parent="1" vertex="1">
          <mxGeometry x="300" y="1100" width="20" height="100" as="geometry" />
        </mxCell>
        <mxCell id="OaPPS3GEKDDDaWRnFWm--94" value="" style="labelPosition=right;align=left;strokeWidth=2;shape=mxgraph.mockup.markup.curlyBrace;html=1;shadow=0;dashed=0;strokeColor=#006EAF;direction=north;fillColor=#1ba1e2;fontColor=#ffffff;rotation=-180;" parent="1" vertex="1">
          <mxGeometry x="500" y="790" width="20" height="100" as="geometry" />
        </mxCell>
        <mxCell id="OaPPS3GEKDDDaWRnFWm--99" value="&lt;span style=&quot;color: rgb(0, 0, 0); font-family: Helvetica; font-style: normal; font-variant-ligatures: normal; font-variant-caps: normal; font-weight: 400; letter-spacing: normal; orphans: 2; text-align: left; text-indent: 0px; text-transform: none; widows: 2; word-spacing: 0px; -webkit-text-stroke-width: 0px; background-color: rgb(251, 251, 251); text-decoration-thickness: initial; text-decoration-style: initial; text-decoration-color: initial; float: none; display: inline !important;&quot;&gt;&lt;font style=&quot;font-size: 27px;&quot;&gt;😀&lt;/font&gt;&lt;/span&gt;" style="text;whiteSpace=wrap;html=1;" parent="1" vertex="1">
          <mxGeometry x="140" y="1130" width="50" height="40" as="geometry" />
        </mxCell>
        <mxCell id="OaPPS3GEKDDDaWRnFWm--101" value="&lt;span style=&quot;color: rgb(0, 0, 0); font-family: Helvetica; font-style: normal; font-variant-ligatures: normal; font-variant-caps: normal; font-weight: 400; letter-spacing: normal; orphans: 2; text-align: left; text-indent: 0px; text-transform: none; widows: 2; word-spacing: 0px; -webkit-text-stroke-width: 0px; background-color: rgb(251, 251, 251); text-decoration-thickness: initial; text-decoration-style: initial; text-decoration-color: initial; float: none; display: inline !important;&quot;&gt;&lt;font style=&quot;font-size: 27px;&quot;&gt;😖&lt;/font&gt;&lt;/span&gt;" style="text;whiteSpace=wrap;html=1;" parent="1" vertex="1">
          <mxGeometry x="330" y="826.25" width="40" height="47.5" as="geometry" />
        </mxCell>
        <mxCell id="OaPPS3GEKDDDaWRnFWm--106" value="" style="group;movable=1;resizable=1;rotatable=1;deletable=1;editable=1;locked=0;connectable=1;" parent="1" vertex="1" connectable="0">
          <mxGeometry x="400" y="340" width="70" height="69" as="geometry" />
        </mxCell>
        <mxCell id="OaPPS3GEKDDDaWRnFWm--102" value="" style="image;points=[];aspect=fixed;html=1;align=center;shadow=0;dashed=0;image=img/lib/allied_telesis/computer_and_terminals/Server_Desktop.svg;" parent="OaPPS3GEKDDDaWRnFWm--106" vertex="1">
          <mxGeometry y="15" width="42.599999999999994" height="54" as="geometry" />
        </mxCell>
        <mxCell id="OaPPS3GEKDDDaWRnFWm--104" value="&lt;span style=&quot;color: rgb(0, 0, 0); font-family: Helvetica; font-style: normal; font-variant-ligatures: normal; font-variant-caps: normal; font-weight: 400; letter-spacing: normal; orphans: 2; text-align: left; text-indent: 0px; text-transform: none; widows: 2; word-spacing: 0px; -webkit-text-stroke-width: 0px; text-decoration-thickness: initial; text-decoration-style: initial; text-decoration-color: initial; float: none; display: inline !important;&quot;&gt;&lt;font style=&quot;font-size: 27px;&quot;&gt;🔥&lt;/font&gt;&lt;/span&gt;" style="text;whiteSpace=wrap;html=1;" parent="OaPPS3GEKDDDaWRnFWm--106" vertex="1">
          <mxGeometry x="20" y="29" width="50" height="40" as="geometry" />
        </mxCell>
        <mxCell id="OaPPS3GEKDDDaWRnFWm--105" value="&lt;span style=&quot;color: rgb(0, 0, 0); font-family: Helvetica; font-style: normal; font-variant-ligatures: normal; font-variant-caps: normal; font-weight: 400; letter-spacing: normal; orphans: 2; text-align: left; text-indent: 0px; text-transform: none; widows: 2; word-spacing: 0px; -webkit-text-stroke-width: 0px; text-decoration-thickness: initial; text-decoration-style: initial; text-decoration-color: initial; float: none; display: inline !important;&quot;&gt;&lt;font style=&quot;font-size: 27px;&quot;&gt;🔥&lt;/font&gt;&lt;/span&gt;" style="text;whiteSpace=wrap;html=1;" parent="OaPPS3GEKDDDaWRnFWm--106" vertex="1">
          <mxGeometry width="50" height="40" as="geometry" />
        </mxCell>
        <mxCell id="OaPPS3GEKDDDaWRnFWm--108" value="" style="image;points=[];aspect=fixed;html=1;align=center;shadow=0;dashed=0;image=img/lib/allied_telesis/computer_and_terminals/Server_Desktop.svg;" parent="1" vertex="1">
          <mxGeometry x="597.4" y="355" width="42.599999999999994" height="54" as="geometry" />
        </mxCell>
        <mxCell id="OaPPS3GEKDDDaWRnFWm--109" value="" style="image;points=[];aspect=fixed;html=1;align=center;shadow=0;dashed=0;image=img/lib/allied_telesis/computer_and_terminals/Server_Desktop.svg;" parent="1" vertex="1">
          <mxGeometry x="607.4" y="666" width="42.599999999999994" height="54" as="geometry" />
        </mxCell>
        <mxCell id="OaPPS3GEKDDDaWRnFWm--110" value="" style="group" parent="1" vertex="1" connectable="0">
          <mxGeometry x="610" y="541" width="70" height="69" as="geometry" />
        </mxCell>
        <mxCell id="OaPPS3GEKDDDaWRnFWm--111" value="" style="image;points=[];aspect=fixed;html=1;align=center;shadow=0;dashed=0;image=img/lib/allied_telesis/computer_and_terminals/Server_Desktop.svg;" parent="OaPPS3GEKDDDaWRnFWm--110" vertex="1">
          <mxGeometry y="15" width="42.599999999999994" height="54" as="geometry" />
        </mxCell>
        <mxCell id="OaPPS3GEKDDDaWRnFWm--112" value="&lt;span style=&quot;color: rgb(0, 0, 0); font-family: Helvetica; font-style: normal; font-variant-ligatures: normal; font-variant-caps: normal; font-weight: 400; letter-spacing: normal; orphans: 2; text-align: left; text-indent: 0px; text-transform: none; widows: 2; word-spacing: 0px; -webkit-text-stroke-width: 0px; text-decoration-thickness: initial; text-decoration-style: initial; text-decoration-color: initial; float: none; display: inline !important;&quot;&gt;&lt;font style=&quot;font-size: 27px;&quot;&gt;🔥&lt;/font&gt;&lt;/span&gt;" style="text;whiteSpace=wrap;html=1;" parent="OaPPS3GEKDDDaWRnFWm--110" vertex="1">
          <mxGeometry x="20" y="29" width="50" height="40" as="geometry" />
        </mxCell>
        <mxCell id="OaPPS3GEKDDDaWRnFWm--113" value="&lt;span style=&quot;color: rgb(0, 0, 0); font-family: Helvetica; font-style: normal; font-variant-ligatures: normal; font-variant-caps: normal; font-weight: 400; letter-spacing: normal; orphans: 2; text-align: left; text-indent: 0px; text-transform: none; widows: 2; word-spacing: 0px; -webkit-text-stroke-width: 0px; text-decoration-thickness: initial; text-decoration-style: initial; text-decoration-color: initial; float: none; display: inline !important;&quot;&gt;&lt;font style=&quot;font-size: 27px;&quot;&gt;🔥&lt;/font&gt;&lt;/span&gt;" style="text;whiteSpace=wrap;html=1;" parent="OaPPS3GEKDDDaWRnFWm--110" vertex="1">
          <mxGeometry width="50" height="40" as="geometry" />
        </mxCell>
        <mxCell id="OaPPS3GEKDDDaWRnFWm--115" value="&lt;span style=&quot;color: rgb(0, 0, 0); font-family: Helvetica; font-style: normal; font-variant-ligatures: normal; font-variant-caps: normal; font-weight: 400; letter-spacing: normal; orphans: 2; text-align: left; text-indent: 0px; text-transform: none; widows: 2; word-spacing: 0px; -webkit-text-stroke-width: 0px; text-decoration-thickness: initial; text-decoration-style: initial; text-decoration-color: initial; float: none; display: inline !important;&quot;&gt;&lt;font style=&quot;font-size: 27px;&quot;&gt;🚫&lt;/font&gt;&lt;/span&gt;" style="text;whiteSpace=wrap;html=1;" parent="1" vertex="1">
          <mxGeometry x="480" y="330" width="40" height="40" as="geometry" />
        </mxCell>
        <mxCell id="OaPPS3GEKDDDaWRnFWm--116" value="" style="endArrow=classic;html=1;rounded=0;exitX=1;exitY=0.5;exitDx=0;exitDy=0;entryX=0;entryY=0.5;entryDx=0;entryDy=0;" parent="1" source="OaPPS3GEKDDDaWRnFWm--2" target="OaPPS3GEKDDDaWRnFWm--115" edge="1">
          <mxGeometry width="50" height="50" relative="1" as="geometry">
            <mxPoint x="720" y="470" as="sourcePoint" />
            <mxPoint x="450" y="500" as="targetPoint" />
          </mxGeometry>
        </mxCell>
        <mxCell id="_PAhqpTUkESRIHdaC6WQ-1" value="&lt;b&gt;&lt;font style=&quot;font-size: 22px;&quot;&gt;Normal Way&lt;/font&gt;&lt;/b&gt;" style="text;html=1;strokeColor=none;fillColor=#fad9d5;align=center;verticalAlign=middle;whiteSpace=wrap;rounded=0;" vertex="1" parent="1">
          <mxGeometry x="110" y="240" width="150" height="30" as="geometry" />
        </mxCell>
        <mxCell id="_PAhqpTUkESRIHdaC6WQ-2" value="&lt;b style=&quot;border-color: var(--border-color);&quot;&gt;&lt;font style=&quot;border-color: var(--border-color); font-size: 22px;&quot;&gt;Message Queuing&lt;/font&gt;&lt;/b&gt;" style="text;html=1;strokeColor=none;fillColor=#d5e8d4;align=center;verticalAlign=middle;whiteSpace=wrap;rounded=0;" vertex="1" parent="1">
          <mxGeometry x="60" y="501" width="230" height="30" as="geometry" />
        </mxCell>
        <mxCell id="_PAhqpTUkESRIHdaC6WQ-3" value="&lt;b&gt;&lt;font style=&quot;font-size: 22px;&quot;&gt;Normal Way&lt;/font&gt;&lt;/b&gt;" style="text;html=1;strokeColor=none;fillColor=#fad9d5;align=center;verticalAlign=middle;whiteSpace=wrap;rounded=0;" vertex="1" parent="1">
          <mxGeometry x="100" y="825" width="160" height="30" as="geometry" />
        </mxCell>
        <mxCell id="_PAhqpTUkESRIHdaC6WQ-4" value="&lt;b style=&quot;border-color: var(--border-color);&quot;&gt;&lt;font style=&quot;border-color: var(--border-color); font-size: 22px;&quot;&gt;Message Queuing&lt;/font&gt;&lt;/b&gt;" style="text;html=1;strokeColor=none;fillColor=#d5e8d4;align=center;verticalAlign=middle;whiteSpace=wrap;rounded=0;" vertex="1" parent="1">
          <mxGeometry x="60" y="1060" width="230" height="30" as="geometry" />
        </mxCell>
        <mxCell id="_PAhqpTUkESRIHdaC6WQ-6" value="" style="endArrow=none;html=1;rounded=0;" edge="1" parent="1" source="_PAhqpTUkESRIHdaC6WQ-11">
          <mxGeometry width="50" height="50" relative="1" as="geometry">
            <mxPoint x="5" y="450" as="sourcePoint" />
            <mxPoint x="750" y="445" as="targetPoint" />
          </mxGeometry>
        </mxCell>
        <mxCell id="_PAhqpTUkESRIHdaC6WQ-8" value="0.5 s" style="text;html=1;strokeColor=none;fillColor=none;align=center;verticalAlign=middle;whiteSpace=wrap;rounded=0;" vertex="1" parent="1">
          <mxGeometry x="575" y="880" width="60" height="30" as="geometry" />
        </mxCell>
        <mxCell id="_PAhqpTUkESRIHdaC6WQ-12" value="" style="endArrow=none;html=1;rounded=0;" edge="1" parent="1" target="_PAhqpTUkESRIHdaC6WQ-11">
          <mxGeometry width="50" height="50" relative="1" as="geometry">
            <mxPoint y="445" as="sourcePoint" />
            <mxPoint x="755" y="450" as="targetPoint" />
          </mxGeometry>
        </mxCell>
        <mxCell id="_PAhqpTUkESRIHdaC6WQ-11" value="&lt;b style=&quot;border-color: var(--border-color);&quot;&gt;&lt;font face=&quot;Comic Sans MS&quot; style=&quot;border-color: var(--border-color); font-size: 17px;&quot;&gt;System independence - Microservices&lt;/font&gt;&lt;/b&gt;" style="text;html=1;strokeColor=none;fillColor=none;align=center;verticalAlign=middle;whiteSpace=wrap;rounded=0;" vertex="1" parent="1">
          <mxGeometry x="180" y="430" width="340" height="30" as="geometry" />
        </mxCell>
        <mxCell id="_PAhqpTUkESRIHdaC6WQ-13" value="" style="endArrow=none;html=1;rounded=0;" edge="1" parent="1" source="_PAhqpTUkESRIHdaC6WQ-15">
          <mxGeometry width="50" height="50" relative="1" as="geometry">
            <mxPoint x="-30" y="1030" as="sourcePoint" />
            <mxPoint x="715" y="1025" as="targetPoint" />
          </mxGeometry>
        </mxCell>
        <mxCell id="_PAhqpTUkESRIHdaC6WQ-14" value="" style="endArrow=none;html=1;rounded=0;" edge="1" parent="1" target="_PAhqpTUkESRIHdaC6WQ-15">
          <mxGeometry width="50" height="50" relative="1" as="geometry">
            <mxPoint x="-35" y="1025" as="sourcePoint" />
            <mxPoint x="720" y="1030" as="targetPoint" />
          </mxGeometry>
        </mxCell>
        <mxCell id="_PAhqpTUkESRIHdaC6WQ-15" value="&lt;b style=&quot;border-color: var(--border-color);&quot;&gt;&lt;font face=&quot;Comic Sans MS&quot; style=&quot;border-color: var(--border-color); font-size: 17px;&quot;&gt;Asynchronous message passing&lt;/font&gt;&lt;/b&gt;" style="text;html=1;strokeColor=none;fillColor=none;align=center;verticalAlign=middle;whiteSpace=wrap;rounded=0;" vertex="1" parent="1">
          <mxGeometry x="170" y="1010" width="280" height="30" as="geometry" />
        </mxCell>
        <mxCell id="_PAhqpTUkESRIHdaC6WQ-24" style="edgeStyle=orthogonalEdgeStyle;rounded=0;orthogonalLoop=1;jettySize=auto;html=1;entryX=0.5;entryY=0;entryDx=0;entryDy=0;" edge="1" parent="1" source="_PAhqpTUkESRIHdaC6WQ-16" target="_PAhqpTUkESRIHdaC6WQ-23">
          <mxGeometry relative="1" as="geometry" />
        </mxCell>
        <mxCell id="_PAhqpTUkESRIHdaC6WQ-16" value="&lt;b&gt;&lt;font style=&quot;font-size: 16px;&quot;&gt;Core App (System)&lt;/font&gt;&lt;/b&gt;" style="rounded=0;whiteSpace=wrap;html=1;" vertex="1" parent="1">
          <mxGeometry x="42.4" y="1530" width="120" height="60" as="geometry" />
        </mxCell>
        <mxCell id="_PAhqpTUkESRIHdaC6WQ-17" value="" style="image;points=[];aspect=fixed;html=1;align=center;shadow=0;dashed=0;image=img/lib/allied_telesis/computer_and_terminals/Server_Desktop.svg;" vertex="1" parent="1">
          <mxGeometry x="137.39999999999998" y="1560" width="42.599999999999994" height="54" as="geometry" />
        </mxCell>
        <mxCell id="_PAhqpTUkESRIHdaC6WQ-36" style="rounded=0;orthogonalLoop=1;jettySize=auto;html=1;exitX=0;exitY=0.5;exitDx=0;exitDy=0;entryX=1;entryY=0.25;entryDx=0;entryDy=0;" edge="1" parent="1" source="_PAhqpTUkESRIHdaC6WQ-18" target="_PAhqpTUkESRIHdaC6WQ-23">
          <mxGeometry relative="1" as="geometry" />
        </mxCell>
        <mxCell id="_PAhqpTUkESRIHdaC6WQ-18" value="Sub-System" style="rounded=0;whiteSpace=wrap;html=1;" vertex="1" parent="1">
          <mxGeometry x="315" y="1530" width="120" height="60" as="geometry" />
        </mxCell>
        <mxCell id="_PAhqpTUkESRIHdaC6WQ-38" style="rounded=0;orthogonalLoop=1;jettySize=auto;html=1;exitX=0;exitY=0.5;exitDx=0;exitDy=0;entryX=0.988;entryY=0.633;entryDx=0;entryDy=0;entryPerimeter=0;" edge="1" parent="1" source="_PAhqpTUkESRIHdaC6WQ-19" target="_PAhqpTUkESRIHdaC6WQ-23">
          <mxGeometry relative="1" as="geometry" />
        </mxCell>
        <mxCell id="_PAhqpTUkESRIHdaC6WQ-19" value="Systems under development" style="rounded=0;whiteSpace=wrap;html=1;" vertex="1" parent="1">
          <mxGeometry x="355" y="1690" width="120" height="60" as="geometry" />
        </mxCell>
        <mxCell id="_PAhqpTUkESRIHdaC6WQ-37" style="rounded=0;orthogonalLoop=1;jettySize=auto;html=1;exitX=0;exitY=0.5;exitDx=0;exitDy=0;" edge="1" parent="1" source="_PAhqpTUkESRIHdaC6WQ-20">
          <mxGeometry relative="1" as="geometry">
            <mxPoint x="160" y="1670" as="targetPoint" />
          </mxGeometry>
        </mxCell>
        <mxCell id="_PAhqpTUkESRIHdaC6WQ-20" value="Third Party App" style="rounded=0;whiteSpace=wrap;html=1;" vertex="1" parent="1">
          <mxGeometry x="355" y="1610" width="120" height="60" as="geometry" />
        </mxCell>
        <mxCell id="_PAhqpTUkESRIHdaC6WQ-39" style="rounded=0;orthogonalLoop=1;jettySize=auto;html=1;exitX=0;exitY=0.5;exitDx=0;exitDy=0;entryX=1;entryY=0.75;entryDx=0;entryDy=0;" edge="1" parent="1" source="_PAhqpTUkESRIHdaC6WQ-21" target="_PAhqpTUkESRIHdaC6WQ-23">
          <mxGeometry relative="1" as="geometry" />
        </mxCell>
        <mxCell id="_PAhqpTUkESRIHdaC6WQ-21" value="Other app ..." style="rounded=0;whiteSpace=wrap;html=1;" vertex="1" parent="1">
          <mxGeometry x="305" y="1770" width="120" height="60" as="geometry" />
        </mxCell>
        <mxCell id="_PAhqpTUkESRIHdaC6WQ-23" value="&lt;b&gt;Message &lt;br&gt;Queue&lt;br&gt;(Channel)&lt;br&gt;&lt;/b&gt;" style="shape=process;whiteSpace=wrap;html=1;backgroundOutline=1;" vertex="1" parent="1">
          <mxGeometry x="42.400000000000006" y="1650" width="120" height="60" as="geometry" />
        </mxCell>
        <mxCell id="_PAhqpTUkESRIHdaC6WQ-31" value="" style="endArrow=none;html=1;rounded=0;" edge="1" parent="1" source="_PAhqpTUkESRIHdaC6WQ-33">
          <mxGeometry width="50" height="50" relative="1" as="geometry">
            <mxPoint x="-60" y="1500" as="sourcePoint" />
            <mxPoint x="520" y="1495" as="targetPoint" />
          </mxGeometry>
        </mxCell>
        <mxCell id="_PAhqpTUkESRIHdaC6WQ-32" value="" style="endArrow=none;html=1;rounded=0;" edge="1" parent="1" target="_PAhqpTUkESRIHdaC6WQ-33">
          <mxGeometry width="50" height="50" relative="1" as="geometry">
            <mxPoint x="-65" y="1495" as="sourcePoint" />
            <mxPoint x="690" y="1500" as="targetPoint" />
          </mxGeometry>
        </mxCell>
        <mxCell id="_PAhqpTUkESRIHdaC6WQ-33" value="&lt;b style=&quot;border-color: var(--border-color);&quot;&gt;&lt;font face=&quot;Comic Sans MS&quot; style=&quot;border-color: var(--border-color); font-size: 17px;&quot;&gt;Publish / Subscribe&lt;/font&gt;&lt;/b&gt;" style="text;html=1;strokeColor=none;fillColor=none;align=center;verticalAlign=middle;whiteSpace=wrap;rounded=0;" vertex="1" parent="1">
          <mxGeometry x="180" y="1480" width="190" height="30" as="geometry" />
        </mxCell>
        <mxCell id="_PAhqpTUkESRIHdaC6WQ-34" value="&lt;b&gt;&lt;font style=&quot;font-size: 22px;&quot;&gt;Message Queuing&lt;/font&gt;&lt;/b&gt;" style="text;html=1;strokeColor=none;fillColor=#d5e8d4;align=center;verticalAlign=middle;whiteSpace=wrap;rounded=0;" vertex="1" parent="1">
          <mxGeometry x="10" y="1760" width="220" height="30" as="geometry" />
        </mxCell>
        <mxCell id="_PAhqpTUkESRIHdaC6WQ-41" value="&lt;b&gt;Pull or Ignore&lt;/b&gt;" style="text;html=1;strokeColor=#666666;fillColor=#f5f5f5;align=center;verticalAlign=middle;whiteSpace=wrap;rounded=1;fontColor=#333333;" vertex="1" parent="1">
          <mxGeometry x="250" y="1610" width="90" height="30" as="geometry" />
        </mxCell>
        <mxCell id="_PAhqpTUkESRIHdaC6WQ-46" value="&lt;b&gt;New Push&lt;/b&gt;" style="rounded=1;whiteSpace=wrap;html=1;fillColor=#dae8fc;strokeColor=#6c8ebf;" vertex="1" parent="1">
          <mxGeometry x="20" y="1610" width="70" height="20" as="geometry" />
        </mxCell>
        <mxCell id="_PAhqpTUkESRIHdaC6WQ-48" value="&lt;span style=&quot;font-family: Helvetica; font-style: normal; font-variant-ligatures: normal; font-variant-caps: normal; font-weight: 400; letter-spacing: normal; orphans: 2; text-align: left; text-indent: 0px; text-transform: none; widows: 2; word-spacing: 0px; -webkit-text-stroke-width: 0px; text-decoration-thickness: initial; text-decoration-style: initial; text-decoration-color: initial; float: none; display: inline !important;&quot;&gt;&lt;font color=&quot;rgba(0, 0, 0, 0)&quot; style=&quot;font-size: 37px;&quot;&gt;📱&lt;/font&gt;&lt;/span&gt;" style="text;whiteSpace=wrap;html=1;" vertex="1" parent="1">
          <mxGeometry x="457.5" y="1630" width="40" height="50" as="geometry" />
        </mxCell>
        <mxCell id="_PAhqpTUkESRIHdaC6WQ-50" value="&lt;span style=&quot;color: rgb(0, 0, 0); font-family: Helvetica; font-style: normal; font-variant-ligatures: normal; font-variant-caps: normal; font-weight: 400; letter-spacing: normal; orphans: 2; text-align: left; text-indent: 0px; text-transform: none; widows: 2; word-spacing: 0px; -webkit-text-stroke-width: 0px; text-decoration-thickness: initial; text-decoration-style: initial; text-decoration-color: initial; float: none; display: inline !important;&quot;&gt;&lt;font style=&quot;font-size: 37px;&quot;&gt;🔧&lt;/font&gt;&lt;/span&gt;" style="text;whiteSpace=wrap;html=1;" vertex="1" parent="1">
          <mxGeometry x="435" y="1710" width="50" height="40" as="geometry" />
        </mxCell>
        <mxCell id="_PAhqpTUkESRIHdaC6WQ-51" value="&lt;span style=&quot;color: rgb(0, 0, 0); font-family: Helvetica; font-size: 37px; font-style: normal; font-variant-ligatures: normal; font-variant-caps: normal; font-weight: 400; letter-spacing: normal; orphans: 2; text-align: left; text-indent: 0px; text-transform: none; widows: 2; word-spacing: 0px; -webkit-text-stroke-width: 0px; text-decoration-thickness: initial; text-decoration-style: initial; text-decoration-color: initial; float: none; display: inline !important;&quot;&gt;💻&lt;/span&gt;" style="text;whiteSpace=wrap;html=1;" vertex="1" parent="1">
          <mxGeometry x="400" y="1550" width="60" height="60" as="geometry" />
        </mxCell>
        <mxCell id="_PAhqpTUkESRIHdaC6WQ-53" value="&lt;b&gt;Pull or Ignore&lt;/b&gt;" style="text;html=1;strokeColor=#666666;fillColor=#f5f5f5;align=center;verticalAlign=middle;whiteSpace=wrap;rounded=1;fontColor=#333333;" vertex="1" parent="1">
          <mxGeometry x="240" y="1720" width="90" height="30" as="geometry" />
        </mxCell>
      </root>
    </mxGraphModel>
  </diagram>
</mxfile>
